<svg xmlns="http://www.w3.org/2000/svg" xmlns:xlink="http://www.w3.org/1999/xlink" version="1.1" id="Ebene_1" x="0px" y="0px" width="31.1557788945px" height="100px" viewBox="0 0 124.239 398.298" enable-background="new 0 0 124.239 398.298" xml:space="preserve">
<polygon id="Land" stroke="#000000" stroke-width="2" stroke-miterlimit="10" points="73.824,23.53 91.823,21.03 95.823,27.03   102.323,24.03 108.572,23.197 110.905,18.864 111.654,11.114 114.738,2.031 118.071,6.114 120.904,6.864 123.239,6.197   123.239,10.281 122.739,17.281 121.821,22.114 121.738,28.281 120.738,42.28 119.738,44.447 120.905,46.447 121.071,50.614   122.821,57.364 122.155,63.864 121.238,65.447 118.572,66.613 117.322,69.78 114.239,69.113 113.822,70.696 114.739,72.28   114.989,74.28 115.572,77.613 116.155,78.696 114.489,79.78 114.072,81.696 114.322,83.78 114.905,86.363 114.905,88.946   115.489,89.363 114.155,90.53 113.905,94.03 114.656,97.446 113.656,101.529 114.906,106.863 115.072,113.946 113.74,119.196   113.073,122.779 111.74,125.446 112.99,127.612 110.906,131.862 111.156,135.862 113.323,141.112 110.99,145.696 113.324,150.279   112.407,151.696 113.907,153.363 112.824,155.113 113.824,159.779 114.824,160.863 111.407,169.446 109.741,179.364   107.741,188.781 107.324,194.781 105.991,201.947 102.159,208.78 100.576,212.614 100.992,215.614 105.325,221.696 106.491,224.779   105.991,228.029 102.076,237.112 101.66,242.195 100.66,245.778 96.326,249.778 95.326,254.112 96.16,258.278 93.076,261.445   91.993,263.111 91.493,268.027 86.41,277.861 83.91,283.277 83.827,287.777 82.078,292.444 79.744,299.194 82.326,306.444   80.244,310.86 79.744,316.36 78.41,319.277 80.327,325.194 80.827,331.443 75.827,337.859 74.743,345.859 72.577,351.359   73.16,359.192 70.327,365.525 68.577,370.692 67.91,377.109 66.994,381.859 64.744,384.359 64.744,390.692 58.078,396.692   55.161,391.108 54.244,383.358 55.578,380.692 53.161,376.275 53.161,371.027 47.579,356.11 43.746,345.945 44.162,341.195   38.412,325.611 32.163,308.445 32.163,306.195 29.163,304.445 25.413,301.945 25.413,296.945 26.579,293.112 23.329,289.028   23.329,282.527 21.748,277.111 20.915,271.944 14.498,258.361 8.916,241.944 3.917,227.112 1,218.28 1,216.696 3.833,214.78   7.417,212.196 9.082,209.947 10.749,209.364 9.999,205.614 9.999,201.947 12.499,198.864 19.249,191.697 23.499,187.53   25.832,186.447 26.916,184.197 24.499,181.364 21.082,178.447 24.998,171.863 27.831,167.03 31.498,160.947 34.165,155.03   38.164,145.03 40.581,140.613 42.497,134.946 44.33,129.362 46.747,124.446 48.08,117.612 50.163,110.112 51.913,102.862   53.747,95.529 55.163,92.696 54.747,88.946 56.33,84.779 57.663,78.196 59.08,69.446 59.163,64.112 61.163,60.779 60.83,54.612   62.12,50.196 64.08,49.612 66.746,53.112 68.33,51.529 70.58,48.529 72.246,45.696 72.163,41.362 71.913,36.946 72.997,32.779   73.83,28.195 "/>
</svg>